<svg width="139" height="30" viewBox="0 0 139 30" fill="none" xmlns="http://www.w3.org/2000/svg">
<path d="M111.827 11.8882L108.062 11.5147V6.84668H104.799V8.58942C104.799 12.1994 106.242 13.4442 107.999 14.0044H104.799V18.299C104.799 22.4691 106.87 24.1496 110.886 24.1496C114.902 24.1496 116.973 22.4691 116.973 18.299V17.7388C117.036 12.7595 114.337 12.1371 111.827 11.8882ZM113.773 21.2243H108.062V14.0666C108.69 14.2533 109.38 14.3778 110.007 14.44L113.773 15.0002V21.2243ZM121.491 6.84668C120.487 6.84668 119.797 7.53133 119.797 8.52718C119.797 9.52303 120.487 10.2077 121.491 10.2077C122.496 10.2077 123.186 9.52303 123.186 8.52718C123.249 7.53133 122.558 6.84668 121.491 6.84668ZM129.336 11.8259V8.90062H126.135C126.135 13.0707 128.206 14.7512 132.222 14.7512H133.54V11.8259H129.336ZM129.336 14.3778H126.135V18.299C126.135 22.4691 128.206 24.1496 132.222 24.1496H133.54V21.2243H129.336V14.3778ZM119.923 24.1496H123.186V11.8259H119.923V24.1496Z" fill="white"/>
<path d="M65.6411 11.8877L61.8759 11.5143V6.84626H58.6127V8.58899C58.6127 12.199 60.056 13.4438 61.8132 14.0039H58.6127V24.1492H61.8759V14.0662C62.5035 14.2529 63.1937 14.3774 63.8213 14.4396L67.5865 14.9998V24.1492H70.8497V17.7384C70.8497 12.7591 68.1513 12.1367 65.6411 11.8877ZM52.0863 21.2238H48.1956V11.8255H44.9323V18.2985C44.9323 22.4687 47.0032 24.1492 51.0195 24.1492H55.2867V11.8255H52.0863V21.2238ZM41.1671 11.8255H37.9039V18.2985C37.9039 22.4687 39.9748 24.1492 43.991 24.1492H45.3089V21.2238H41.1044V11.8255H41.1671ZM96.1396 11.8255H90.0524V13.3815C90.0524 17.5516 92.1233 19.2321 96.1396 19.2321H102.227V17.6761C102.227 13.4438 100.156 11.8255 96.1396 11.8255ZM99.0263 16.5558H96.1396H93.2529V14.5641H98.9635V16.5558H99.0263ZM75.619 6.84626C74.615 6.84626 73.9247 7.5309 73.9247 8.52675C73.9247 9.5226 74.615 10.2073 75.619 10.2073C76.6231 10.2073 77.3134 9.5226 77.3134 8.52675C77.3134 7.5309 76.6231 6.84626 75.619 6.84626ZM73.9874 24.1492H77.2506V11.8255H73.9874V24.1492ZM83.4633 14.3774H80.2001V18.2985C80.2001 22.4687 82.2709 24.1492 86.2872 24.1492H87.605V21.2238H83.4633V14.3774ZM83.4633 8.9002H80.2001C80.2001 13.0703 82.2709 14.7508 86.2872 14.7508H87.605V11.8255H83.4633V8.9002ZM93.2529 18.7965H89.9897C89.9897 22.5309 92.0606 24.1492 96.0768 24.1492H101.536V21.2238H93.1901V18.7965H93.2529ZM26.922 3.17406C23.9098 3.17406 21.4624 5.60144 21.4624 8.58899H14.8732L20.3328 3.17406H13.6809C10.6687 3.17406 8.22129 5.60144 8.22129 8.58899H8.15854C5.14635 8.58899 2.69894 11.0164 2.69894 14.0039H8.22129V18.0496C8.22129 23.4645 12.6768 27.8214 18.0737 27.8214H28.1143V8.52675L33.5739 3.11182L26.922 3.17406ZM21.2114 17.4894C20.3956 16.6803 20.3956 15.3732 21.2114 14.5641L24.1608 17.4894C23.345 18.2985 22.0272 18.2985 21.2114 17.4894Z" fill="white"/>
</svg>
